<svg width="47" height="47" viewBox="0 0 47 47" fill="none" xmlns="http://www.w3.org/2000/svg">
<path d="M15.7778 41H32.2222M24 41V33M24 33C18.3237 33 13.7222 28.5228 13.7222 23V11M24 33C29.6762 33 34.2778 28.5228 34.2778 23V11M13.7222 11C13.7222 8.79086 15.5628 7 17.8333 7H30.1667C32.4372 7 34.2778 8.79086 34.2778 11M13.7222 11H10.6389C7.80076 11 5.5 13.2386 5.5 16C5.5 18.7614 7.80076 21 10.6389 21H13.7222M34.2778 11H37.3611C40.1992 11 42.5 13.2386 42.5 16C42.5 18.7614 40.1992 21 37.3611 21H34.2778" stroke="#424242" stroke-width="2" stroke-linecap="round" stroke-linejoin="round"/>
</svg>
