<svg width="1431" height="709" viewBox="0 0 1431 709" fill="none" xmlns="http://www.w3.org/2000/svg">
<g clip-path="url(#clip0_821_422)">
<path d="M1304 88.625L1491 0H1304V88.625Z" stroke="white" stroke-opacity="0.09" stroke-linejoin="round"/>
<path d="M1304 88.625V0H1117L1304 88.625Z" stroke="white" stroke-opacity="0.09" stroke-linejoin="round"/>
<path d="M1304 88.625H1210.5L1304 132.938V88.625Z" stroke="white" stroke-opacity="0.09" stroke-linejoin="round"/>
<path d="M1210.5 88.625V132.938L1117 88.625H1210.5Z" stroke="white" stroke-opacity="0.09" stroke-linejoin="round"/>
<path d="M1210.5 177.25L1117 132.938V177.25H1210.5Z" stroke="white" stroke-opacity="0.09" stroke-linejoin="round"/>
<path d="M1304 132.938V177.25H1210.5L1304 132.938Z" stroke="white" stroke-opacity="0.09" stroke-linejoin="round"/>
<path d="M1491 88.625L1304 177.25V88.625H1491Z" stroke="white" stroke-opacity="0.09" stroke-linejoin="round"/>
<path d="M1117 0V88.625L930 0H1117Z" stroke="white" stroke-opacity="0.09" stroke-linejoin="round"/>
<path d="M930 88.625V0H743L930 88.625Z" stroke="white" stroke-opacity="0.09" stroke-linejoin="round"/>
<path d="M930 88.625V132.938H836.5L930 88.625Z" stroke="white" stroke-opacity="0.09" stroke-linejoin="round"/>
<path d="M743 132.938V88.625H836.5L743 132.938Z" stroke="white" stroke-opacity="0.09" stroke-linejoin="round"/>
<path d="M743 132.938L836.5 177.25V132.938H743Z" stroke="white" stroke-opacity="0.09" stroke-linejoin="round"/>
<path d="M930 132.938H836.5L930 177.25V132.938Z" stroke="white" stroke-opacity="0.09" stroke-linejoin="round"/>
<path d="M1023.5 132.938H1117V88.625L1023.5 132.938Z" stroke="white" stroke-opacity="0.09" stroke-linejoin="round"/>
<path d="M1023.5 88.625V132.938L930 88.625H1023.5Z" stroke="white" stroke-opacity="0.09" stroke-linejoin="round"/>
<path d="M930 177.25H1023.5L930 132.938V177.25Z" stroke="white" stroke-opacity="0.09" stroke-linejoin="round"/>
<path d="M1023.5 132.938L1117 177.25V132.938H1023.5Z" stroke="white" stroke-opacity="0.09" stroke-linejoin="round"/>
<path d="M1023.5 221.563V177.25L1117 221.563H1023.5Z" stroke="white" stroke-opacity="0.09" stroke-linejoin="round"/>
<path d="M1023.5 177.25H930V221.563L1023.5 177.25Z" stroke="white" stroke-opacity="0.09" stroke-linejoin="round"/>
<path d="M1023.5 265.875L930 221.562H1023.5V265.875Z" stroke="white" stroke-opacity="0.09" stroke-linejoin="round"/>
<path d="M1023.5 265.875L1117 221.562V265.875H1023.5Z" stroke="white" stroke-opacity="0.09" stroke-linejoin="round"/>
<path d="M836.5 177.25L930 221.563H836.5V177.25Z" stroke="white" stroke-opacity="0.09" stroke-linejoin="round"/>
<path d="M836.5 221.563H743L836.5 177.25V221.563Z" stroke="white" stroke-opacity="0.09" stroke-linejoin="round"/>
<path d="M743 265.875V221.562H836.5L743 265.875Z" stroke="white" stroke-opacity="0.09" stroke-linejoin="round"/>
<path d="M930 221.562V265.875L836.5 221.562H930Z" stroke="white" stroke-opacity="0.09" stroke-linejoin="round"/>
<path d="M930 310.188L836.5 265.875V310.188H930Z" stroke="white" stroke-opacity="0.09" stroke-linejoin="round"/>
<path d="M836.5 265.875H743V310.188L836.5 265.875Z" stroke="white" stroke-opacity="0.09" stroke-linejoin="round"/>
<path d="M743 310.188L836.5 354.5V310.188H743Z" stroke="white" stroke-opacity="0.09" stroke-linejoin="round"/>
<path d="M930 354.5V310.188H836.5L930 354.5Z" stroke="white" stroke-opacity="0.09" stroke-linejoin="round"/>
<path d="M1117 265.875H930V354.5L1117 265.875Z" stroke="white" stroke-opacity="0.09" stroke-linejoin="round"/>
<path d="M1491 265.875H1304L1491 177.25V265.875Z" stroke="white" stroke-opacity="0.09" stroke-linejoin="round"/>
<path d="M1210.5 221.563H1304L1210.5 177.25V221.563Z" stroke="white" stroke-opacity="0.09" stroke-linejoin="round"/>
<path d="M1117 221.563H1210.5V177.25L1117 221.563Z" stroke="white" stroke-opacity="0.09" stroke-linejoin="round"/>
<path d="M1210.5 221.562L1117 265.875H1210.5V221.562Z" stroke="white" stroke-opacity="0.09" stroke-linejoin="round"/>
<path d="M1304 265.875H1210.5L1304 221.562V265.875Z" stroke="white" stroke-opacity="0.09" stroke-linejoin="round"/>
<path d="M1210.5 310.188L1304 265.875V310.188H1210.5Z" stroke="white" stroke-opacity="0.09" stroke-linejoin="round"/>
<path d="M1210.5 265.875V310.188H1117L1210.5 265.875Z" stroke="white" stroke-opacity="0.09" stroke-linejoin="round"/>
<path d="M1210.5 310.188V354.5H1117L1210.5 310.188Z" stroke="white" stroke-opacity="0.09" stroke-linejoin="round"/>
<path d="M1210.5 354.5V310.188L1304 354.5H1210.5Z" stroke="white" stroke-opacity="0.09" stroke-linejoin="round"/>
<path d="M1304 354.5V265.875L1491 354.5H1304Z" stroke="white" stroke-opacity="0.09" stroke-linejoin="round"/>
<path d="M556 0L743 88.625V0H556Z" stroke="white" stroke-opacity="0.09" stroke-linejoin="round"/>
<path d="M369 0L556 88.625H369V0Z" stroke="white" stroke-opacity="0.09" stroke-linejoin="round"/>
<path d="M462.5 132.938L556 88.625H462.5V132.938Z" stroke="white" stroke-opacity="0.09" stroke-linejoin="round"/>
<path d="M462.5 88.625H369L462.5 132.938V88.625Z" stroke="white" stroke-opacity="0.09" stroke-linejoin="round"/>
<path d="M462.5 132.938L369 177.25V132.938H462.5Z" stroke="white" stroke-opacity="0.09" stroke-linejoin="round"/>
<path d="M556 132.938V177.25L462.5 132.938H556Z" stroke="white" stroke-opacity="0.09" stroke-linejoin="round"/>
<path d="M743 88.625H649.5V132.938L743 88.625Z" stroke="white" stroke-opacity="0.09" stroke-linejoin="round"/>
<path d="M649.5 88.625V132.938H556L649.5 88.625Z" stroke="white" stroke-opacity="0.09" stroke-linejoin="round"/>
<path d="M649.5 132.938L556 177.25H649.5V132.938Z" stroke="white" stroke-opacity="0.09" stroke-linejoin="round"/>
<path d="M649.5 177.25L743 132.938H649.5V177.25Z" stroke="white" stroke-opacity="0.09" stroke-linejoin="round"/>
<path d="M182 0V88.625H369L182 0Z" stroke="white" stroke-opacity="0.09" stroke-linejoin="round"/>
<path d="M182 0L-5 88.625H182V0Z" stroke="white" stroke-opacity="0.09" stroke-linejoin="round"/>
<path d="M-5 88.625V177.25L182 88.625H-5Z" stroke="white" stroke-opacity="0.09" stroke-linejoin="round"/>
<path d="M369 177.25H182V88.625L369 177.25Z" stroke="white" stroke-opacity="0.09" stroke-linejoin="round"/>
<path d="M182 177.25L369 265.875V177.25H182Z" stroke="white" stroke-opacity="0.09" stroke-linejoin="round"/>
<path d="M182 177.25V221.563L88.5 177.25H182Z" stroke="white" stroke-opacity="0.09" stroke-linejoin="round"/>
<path d="M88.5 177.25H-5L88.5 221.563V177.25Z" stroke="white" stroke-opacity="0.09" stroke-linejoin="round"/>
<path d="M88.5 265.875H-5V221.562L88.5 265.875Z" stroke="white" stroke-opacity="0.09" stroke-linejoin="round"/>
<path d="M88.5 265.875H182V221.562L88.5 265.875Z" stroke="white" stroke-opacity="0.09" stroke-linejoin="round"/>
<path d="M182 265.875H-5V354.5L182 265.875Z" stroke="white" stroke-opacity="0.09" stroke-linejoin="round"/>
<path d="M275.5 310.188H369L275.5 265.875V310.188Z" stroke="white" stroke-opacity="0.09" stroke-linejoin="round"/>
<path d="M275.5 265.875V310.188L182 265.875H275.5Z" stroke="white" stroke-opacity="0.09" stroke-linejoin="round"/>
<path d="M275.5 310.188V354.5H182L275.5 310.188Z" stroke="white" stroke-opacity="0.09" stroke-linejoin="round"/>
<path d="M369 354.5H275.5V310.188L369 354.5Z" stroke="white" stroke-opacity="0.09" stroke-linejoin="round"/>
<path d="M743 221.563H649.5L743 177.25V221.563Z" stroke="white" stroke-opacity="0.09" stroke-linejoin="round"/>
<path d="M649.5 177.25L556 221.563V177.25H649.5Z" stroke="white" stroke-opacity="0.09" stroke-linejoin="round"/>
<path d="M556 221.562L649.5 265.875H556V221.562Z" stroke="white" stroke-opacity="0.09" stroke-linejoin="round"/>
<path d="M743 265.875V221.562H649.5L743 265.875Z" stroke="white" stroke-opacity="0.09" stroke-linejoin="round"/>
<path d="M556 177.25V221.563H462.5L556 177.25Z" stroke="white" stroke-opacity="0.09" stroke-linejoin="round"/>
<path d="M462.5 221.563L369 177.25V221.563H462.5Z" stroke="white" stroke-opacity="0.09" stroke-linejoin="round"/>
<path d="M369 221.562H462.5L369 265.875V221.562Z" stroke="white" stroke-opacity="0.09" stroke-linejoin="round"/>
<path d="M462.5 221.562L556 265.875H462.5V221.562Z" stroke="white" stroke-opacity="0.09" stroke-linejoin="round"/>
<path d="M556 310.188V265.875L462.5 310.188H556Z" stroke="white" stroke-opacity="0.09" stroke-linejoin="round"/>
<path d="M462.5 310.188H369V265.875L462.5 310.188Z" stroke="white" stroke-opacity="0.09" stroke-linejoin="round"/>
<path d="M369 354.5L462.5 310.188V354.5H369Z" stroke="white" stroke-opacity="0.09" stroke-linejoin="round"/>
<path d="M556 354.5H462.5L556 310.188V354.5Z" stroke="white" stroke-opacity="0.09" stroke-linejoin="round"/>
<path d="M743 265.875V310.188H649.5L743 265.875Z" stroke="white" stroke-opacity="0.09" stroke-linejoin="round"/>
<path d="M649.5 310.188V265.875H556L649.5 310.188Z" stroke="white" stroke-opacity="0.09" stroke-linejoin="round"/>
<path d="M649.5 310.188L556 354.5H649.5V310.188Z" stroke="white" stroke-opacity="0.09" stroke-linejoin="round"/>
<path d="M649.5 354.5V310.188L743 354.5H649.5Z" stroke="white" stroke-opacity="0.09" stroke-linejoin="round"/>
<path d="M743 443.125V354.5L556 443.125H743Z" stroke="white" stroke-opacity="0.09" stroke-linejoin="round"/>
<path d="M462.5 354.5L556 398.813H462.5V354.5Z" stroke="white" stroke-opacity="0.09" stroke-linejoin="round"/>
<path d="M462.5 398.813V354.5H369L462.5 398.813Z" stroke="white" stroke-opacity="0.09" stroke-linejoin="round"/>
<path d="M369 443.125L462.5 398.812V443.125H369Z" stroke="white" stroke-opacity="0.09" stroke-linejoin="round"/>
<path d="M556 443.125V398.812L462.5 443.125H556Z" stroke="white" stroke-opacity="0.09" stroke-linejoin="round"/>
<path d="M462.5 443.125L556 487.438H462.5V443.125Z" stroke="white" stroke-opacity="0.09" stroke-linejoin="round"/>
<path d="M462.5 443.125L369 487.438V443.125H462.5Z" stroke="white" stroke-opacity="0.09" stroke-linejoin="round"/>
<path d="M369 487.438L462.5 531.75H369V487.438Z" stroke="white" stroke-opacity="0.09" stroke-linejoin="round"/>
<path d="M462.5 531.75L556 487.438H462.5V531.75Z" stroke="white" stroke-opacity="0.09" stroke-linejoin="round"/>
<path d="M743 443.125H649.5V487.438L743 443.125Z" stroke="white" stroke-opacity="0.09" stroke-linejoin="round"/>
<path d="M556 443.125L649.5 487.438V443.125H556Z" stroke="white" stroke-opacity="0.09" stroke-linejoin="round"/>
<path d="M556 487.438H649.5L556 531.75V487.438Z" stroke="white" stroke-opacity="0.09" stroke-linejoin="round"/>
<path d="M743 487.438L649.5 531.75V487.438H743Z" stroke="white" stroke-opacity="0.09" stroke-linejoin="round"/>
<path d="M275.5 354.5L369 398.813V354.5H275.5Z" stroke="white" stroke-opacity="0.09" stroke-linejoin="round"/>
<path d="M182 354.5H275.5V398.813L182 354.5Z" stroke="white" stroke-opacity="0.09" stroke-linejoin="round"/>
<path d="M275.5 398.812V443.125H182L275.5 398.812Z" stroke="white" stroke-opacity="0.09" stroke-linejoin="round"/>
<path d="M369 443.125V398.812L275.5 443.125H369Z" stroke="white" stroke-opacity="0.09" stroke-linejoin="round"/>
<path d="M-5 443.125L182 354.5V443.125H-5Z" stroke="white" stroke-opacity="0.09" stroke-linejoin="round"/>
<path d="M-5 531.75L182 443.125H-5V531.75Z" stroke="white" stroke-opacity="0.09" stroke-linejoin="round"/>
<path d="M369 443.125H182V531.75L369 443.125Z" stroke="white" stroke-opacity="0.09" stroke-linejoin="round"/>
<path d="M369 620.375V531.75H182L369 620.375Z" stroke="white" stroke-opacity="0.09" stroke-linejoin="round"/>
<path d="M182 620.375L-5 531.75H182V620.375Z" stroke="white" stroke-opacity="0.09" stroke-linejoin="round"/>
<path d="M182 620.375H-5L182 709V620.375Z" stroke="white" stroke-opacity="0.09" stroke-linejoin="round"/>
<path d="M369 620.375H182L369 709V620.375Z" stroke="white" stroke-opacity="0.09" stroke-linejoin="round"/>
<path d="M743 531.75L649.5 576.063V531.75H743Z" stroke="white" stroke-opacity="0.09" stroke-linejoin="round"/>
<path d="M556 576.063H649.5L556 531.75V576.063Z" stroke="white" stroke-opacity="0.09" stroke-linejoin="round"/>
<path d="M649.5 620.375V576.062L556 620.375H649.5Z" stroke="white" stroke-opacity="0.09" stroke-linejoin="round"/>
<path d="M743 576.062V620.375L649.5 576.062H743Z" stroke="white" stroke-opacity="0.09" stroke-linejoin="round"/>
<path d="M556 531.75H462.5L556 576.063V531.75Z" stroke="white" stroke-opacity="0.09" stroke-linejoin="round"/>
<path d="M462.5 576.063L369 531.75V576.063H462.5Z" stroke="white" stroke-opacity="0.09" stroke-linejoin="round"/>
<path d="M369 620.375H462.5L369 576.062V620.375Z" stroke="white" stroke-opacity="0.09" stroke-linejoin="round"/>
<path d="M556 576.062L462.5 620.375V576.062H556Z" stroke="white" stroke-opacity="0.09" stroke-linejoin="round"/>
<path d="M556 620.375H369L556 709V620.375Z" stroke="white" stroke-opacity="0.09" stroke-linejoin="round"/>
<path d="M556 620.375V709H743L556 620.375Z" stroke="white" stroke-opacity="0.09" stroke-linejoin="round"/>
<path d="M1491 443.125V354.5H1304L1491 443.125Z" stroke="white" stroke-opacity="0.09" stroke-linejoin="round"/>
<path d="M1304 354.5V398.813L1210.5 354.5H1304Z" stroke="white" stroke-opacity="0.09" stroke-linejoin="round"/>
<path d="M1210.5 398.813H1117L1210.5 354.5V398.813Z" stroke="white" stroke-opacity="0.09" stroke-linejoin="round"/>
<path d="M1210.5 443.125H1117L1210.5 398.812V443.125Z" stroke="white" stroke-opacity="0.09" stroke-linejoin="round"/>
<path d="M1304 443.125H1210.5V398.812L1304 443.125Z" stroke="white" stroke-opacity="0.09" stroke-linejoin="round"/>
<path d="M1210.5 487.438H1304V443.125L1210.5 487.438Z" stroke="white" stroke-opacity="0.09" stroke-linejoin="round"/>
<path d="M1117 487.438L1210.5 443.125V487.438H1117Z" stroke="white" stroke-opacity="0.09" stroke-linejoin="round"/>
<path d="M1210.5 531.75L1117 487.438H1210.5V531.75Z" stroke="white" stroke-opacity="0.09" stroke-linejoin="round"/>
<path d="M1210.5 487.438V531.75L1304 487.438H1210.5Z" stroke="white" stroke-opacity="0.09" stroke-linejoin="round"/>
<path d="M1491 531.75L1304 443.125V531.75H1491Z" stroke="white" stroke-opacity="0.09" stroke-linejoin="round"/>
<path d="M1117 354.5V398.813L1023.5 354.5H1117Z" stroke="white" stroke-opacity="0.09" stroke-linejoin="round"/>
<path d="M1023.5 354.5L930 398.813V354.5H1023.5Z" stroke="white" stroke-opacity="0.09" stroke-linejoin="round"/>
<path d="M930 443.125L1023.5 398.812H930V443.125Z" stroke="white" stroke-opacity="0.09" stroke-linejoin="round"/>
<path d="M1117 398.812H1023.5V443.125L1117 398.812Z" stroke="white" stroke-opacity="0.09" stroke-linejoin="round"/>
<path d="M930 398.813H836.5L930 354.5V398.813Z" stroke="white" stroke-opacity="0.09" stroke-linejoin="round"/>
<path d="M836.5 354.5V398.813H743L836.5 354.5Z" stroke="white" stroke-opacity="0.09" stroke-linejoin="round"/>
<path d="M836.5 398.812V443.125L743 398.812H836.5Z" stroke="white" stroke-opacity="0.09" stroke-linejoin="round"/>
<path d="M930 398.812V443.125H836.5L930 398.812Z" stroke="white" stroke-opacity="0.09" stroke-linejoin="round"/>
<path d="M930 487.438V443.125L836.5 487.438H930Z" stroke="white" stroke-opacity="0.09" stroke-linejoin="round"/>
<path d="M836.5 487.438H743L836.5 443.125V487.438Z" stroke="white" stroke-opacity="0.09" stroke-linejoin="round"/>
<path d="M836.5 487.438V531.75L743 487.438H836.5Z" stroke="white" stroke-opacity="0.09" stroke-linejoin="round"/>
<path d="M930 531.75V487.438L836.5 531.75H930Z" stroke="white" stroke-opacity="0.09" stroke-linejoin="round"/>
<path d="M1117 487.438V443.125H1023.5L1117 487.438Z" stroke="white" stroke-opacity="0.09" stroke-linejoin="round"/>
<path d="M1023.5 443.125V487.438L930 443.125H1023.5Z" stroke="white" stroke-opacity="0.09" stroke-linejoin="round"/>
<path d="M1023.5 531.75H930V487.438L1023.5 531.75Z" stroke="white" stroke-opacity="0.09" stroke-linejoin="round"/>
<path d="M1117 487.438V531.75L1023.5 487.438H1117Z" stroke="white" stroke-opacity="0.09" stroke-linejoin="round"/>
<path d="M1117 531.75H1023.5L1117 576.063V531.75Z" stroke="white" stroke-opacity="0.09" stroke-linejoin="round"/>
<path d="M930 576.063L1023.5 531.75V576.063H930Z" stroke="white" stroke-opacity="0.09" stroke-linejoin="round"/>
<path d="M1023.5 576.062V620.375L930 576.062H1023.5Z" stroke="white" stroke-opacity="0.09" stroke-linejoin="round"/>
<path d="M1023.5 576.062L1117 620.375H1023.5V576.062Z" stroke="white" stroke-opacity="0.09" stroke-linejoin="round"/>
<path d="M930 531.75H743L930 620.375V531.75Z" stroke="white" stroke-opacity="0.09" stroke-linejoin="round"/>
<path d="M930 709L743 620.375H930V709Z" stroke="white" stroke-opacity="0.09" stroke-linejoin="round"/>
<path d="M1117 620.375H930V709L1117 620.375Z" stroke="white" stroke-opacity="0.09" stroke-linejoin="round"/>
<path d="M1491 620.375L1304 531.75H1491V620.375Z" stroke="white" stroke-opacity="0.09" stroke-linejoin="round"/>
<path d="M1304 620.375V531.75L1117 620.375H1304Z" stroke="white" stroke-opacity="0.09" stroke-linejoin="round"/>
<path d="M1304 620.375H1117L1304 709V620.375Z" stroke="white" stroke-opacity="0.09" stroke-linejoin="round"/>
<path d="M1491 620.375V709H1304L1491 620.375Z" stroke="white" stroke-opacity="0.09" stroke-linejoin="round"/>
</g>
<defs>
<clipPath id="clip0_821_422">
<rect width="1496" height="709" fill="white" transform="translate(-5)"/>
</clipPath>
</defs>
</svg>
